<svg width="68" height="222" viewBox="0 0 68 222" fill="none" xmlns="http://www.w3.org/2000/svg">
<path d="M127.82 171.489L141.241 167.769L137.523 154.354L124.102 158.075L120.383 144.66L133.805 140.94L130.086 127.525L116.665 131.245L103.244 134.965L99.5256 121.551L112.947 117.831L109.228 104.416L95.8073 108.136L99.5256 121.551L86.1044 125.271L72.6832 128.991L68.9649 115.576L55.5438 119.297L42.1226 123.017L45.8409 136.431L49.5592 149.846L36.138 153.566L32.4197 140.152L26.4318 141.811L20.168 51.4311C20.168 51.4311 29.0596 38.188 52.95 37.3441C88.7339 36.0926 106.297 55.3369 135.911 61.907C154.522 66.0821 158.651 57.7151 158.651 57.7151L170.727 135.373C170.727 135.373 201.875 128.628 219.661 149.477C230.215 161.886 214.351 174.839 197.936 179.389C180.798 184.14 160.529 181.202 128.077 172.418L127.82 171.489Z" fill="white" stroke="#FF6B00" stroke-width="0.496227" stroke-miterlimit="10"/>
</svg>
